<svg width="194" height="56" viewBox="0 0 194 56" fill="none" xmlns="http://www.w3.org/2000/svg">
  <g clip-path="url(#clip0_12479_41117)">
    <path fill-rule="evenodd" clip-rule="evenodd" d="M22.4048 15.1719V16.6189H21.4009C21.6467 16.0758 21.9885 15.5863 22.4048 15.1719Z" fill="#D3D3D3"/>
    <path fill-rule="evenodd" clip-rule="evenodd" d="M25.8541 13.7491V16.619H22.4092V15.172C22.9901 14.5934 23.7155 14.1608 24.5252 13.9324L24.5304 13.9309C24.5664 13.9208 24.6025 13.911 24.6388 13.9017L24.6448 13.9002C24.679 13.8915 24.7134 13.8833 24.7478 13.8752L24.7626 13.8718C24.7963 13.8641 24.8301 13.8568 24.8639 13.8497L24.8786 13.8467C24.9124 13.8398 24.9466 13.8334 24.9808 13.8272L24.9962 13.8244C25.0285 13.8185 25.061 13.8133 25.0936 13.8082L25.1168 13.8045C25.1481 13.7998 25.1796 13.7954 25.2111 13.7913L25.2363 13.7879C25.2663 13.7841 25.2965 13.7807 25.3267 13.7774L25.3583 13.774C25.3865 13.7713 25.4147 13.7687 25.4429 13.7664L25.4809 13.7632C25.508 13.7611 25.5352 13.7595 25.5623 13.7579C25.5759 13.7571 25.5894 13.7562 25.603 13.7555C25.6282 13.7542 25.6533 13.7532 25.6785 13.7524C25.6953 13.7519 25.7122 13.7511 25.729 13.7507C25.751 13.7502 25.7731 13.7499 25.7951 13.7497C25.8097 13.7495 25.824 13.749 25.8386 13.749L25.8541 13.7491Z" fill="#838383"/>
    <path fill-rule="evenodd" clip-rule="evenodd" d="M17.5294 20.0642L16.2948 18.8296H16.2948L14.8999 17.4347L16.3327 16.002L18.9649 18.6341V20.0642H17.5294Z" fill="#D3D3D3"/>
    <path fill-rule="evenodd" clip-rule="evenodd" d="M21.4036 16.6182H22.4076V18.4947L20.9736 18.4994C20.9739 18.4888 20.9746 18.4782 20.975 18.4675H20.9736C20.9955 17.8089 21.1474 17.1844 21.4036 16.6182Z" fill="#D3D3D3"/>
    <path fill-rule="evenodd" clip-rule="evenodd" d="M22.4092 16.6182H25.8541V18.4834L22.4092 18.4947V16.6182Z" fill="white"/>
    <path fill-rule="evenodd" clip-rule="evenodd" d="M25.8511 16.6182H28.6356V18.4834L25.8511 18.4723V16.6182Z" fill="#D3D3D3"/>
    <path fill-rule="evenodd" clip-rule="evenodd" d="M18.2217 23.5104V20.7623L17.5249 20.0654H18.9603V23.5104H18.2217Z" fill="#D3D3D3"/>
    <path fill-rule="evenodd" clip-rule="evenodd" d="M22.4089 20.0648V23.5098H18.9639V18.6348L19.8729 19.5438C19.891 19.5518 19.9091 19.5592 19.9272 19.5662L22.4089 19.5806V20.0648Z" fill="white"/>
    <path fill-rule="evenodd" clip-rule="evenodd" d="M25.8541 21.2534C25.7981 21.2563 25.7424 21.2578 25.6864 21.2583C25.6635 21.2595 25.6405 21.261 25.6174 21.2626H25.0394V23.5084H22.4092V19.5791L25.8541 19.5989V21.2534Z" fill="#D3D3D3"/>
    <path fill-rule="evenodd" clip-rule="evenodd" d="M26.6657 23.5084V21.2626H26.0878C26.0647 21.261 26.0418 21.2595 26.0187 21.2583C25.9629 21.2578 25.907 21.2563 25.8511 21.2534V19.5989L29.2961 19.5791V23.5084H26.6657Z" fill="#838383"/>
    <path fill-rule="evenodd" clip-rule="evenodd" d="M14.1655 27.2152V26.6829C14.1604 26.6274 14.1602 26.5675 14.1655 26.5032L14.1644 26.4894C14.1604 26.4209 14.1611 26.357 14.1655 26.2963V25.3809H15.5158V27.2152H14.1655Z" fill="#D3D3D3"/>
    <path fill-rule="evenodd" clip-rule="evenodd" d="M15.5186 25.3824H18.225V23.5098H18.9636V26.9548H15.5186V25.3824Z" fill="white"/>
    <path fill-rule="evenodd" clip-rule="evenodd" d="M18.9639 26.9548H22.4089V23.5098H18.9639V26.9548Z" fill="#D3D3D3"/>
    <path fill-rule="evenodd" clip-rule="evenodd" d="M22.4092 26.9548H25.0394V23.5098H22.4092V26.9548Z" fill="white"/>
    <path fill-rule="evenodd" clip-rule="evenodd" d="M26.668 26.9548H29.2983V23.5098H26.668V26.9548Z" fill="white"/>
    <path fill-rule="evenodd" clip-rule="evenodd" d="M29.8159 26.4395H32.2329V24.0225H29.8159V26.4395Z" fill="#838383"/>
    <path fill-rule="evenodd" clip-rule="evenodd" d="M33.4836 23.5098V25.3824H36.1901V26.9548H32.7451V23.5098H33.4836Z" fill="white"/>
    <path fill-rule="evenodd" clip-rule="evenodd" d="M36.187 25.3809H37.5373V26.2963C37.5417 26.357 37.5425 26.4209 37.5385 26.4894L37.5373 26.5032C37.5426 26.5675 37.5424 26.6274 37.5373 26.6829V27.2152H36.187V25.3809Z" fill="#D3D3D3"/>
    <path fill-rule="evenodd" clip-rule="evenodd" d="M18.6461 30.4C18.1582 29.2141 18.2454 28.1443 18.0598 27.2023V27.2171H15.5186V26.9551H18.9637V30.4H18.6461Z" fill="#838383"/>
    <path fill-rule="evenodd" clip-rule="evenodd" d="M18.9639 30.4H22.4089V26.9551H18.9639V30.4Z" fill="white"/>
    <path fill-rule="evenodd" clip-rule="evenodd" d="M22.4092 30.4H25.0394V26.9551H22.4092V30.4Z" fill="#838383"/>
    <path fill-rule="evenodd" clip-rule="evenodd" d="M26.668 30.4H29.2983V26.9551H26.668V30.4Z" fill="#838383"/>
    <path fill-rule="evenodd" clip-rule="evenodd" d="M29.2964 30.4H32.7413V26.9551H29.2964V30.4Z" fill="white"/>
    <path fill-rule="evenodd" clip-rule="evenodd" d="M16.9746 33.8434C17.6895 33.1064 18.4336 32.3184 18.9629 31.705V33.8434H16.9746ZM18.9629 31.0385C18.836 30.8215 18.7316 30.6082 18.6454 30.3984H18.9629V31.0385Z" fill="#838383"/>
    <path fill-rule="evenodd" clip-rule="evenodd" d="M21.6847 33.8434C21.3131 33.6272 20.9489 33.377 20.6126 33.0923C20.3723 33.3543 20.1368 33.6033 19.9041 33.8434H18.9639V31.705C19.0509 31.604 19.1324 31.5077 19.2067 31.4172C19.1176 31.2898 19.037 31.1636 18.9639 31.0385V30.3984H22.4089V33.8434H21.6847Z" fill="#838383"/>
    <path fill-rule="evenodd" clip-rule="evenodd" d="M22.4092 33.8434H25.0394V30.3984H22.4092V33.8434Z" fill="#D3D3D3"/>
    <path fill-rule="evenodd" clip-rule="evenodd" d="M26.668 33.8434H29.2983V30.3984H26.668V33.8434Z" fill="#D3D3D3"/>
    <path fill-rule="evenodd" clip-rule="evenodd" d="M32.7414 31.0385C32.6682 31.1636 32.5875 31.2898 32.4984 31.4172C32.5728 31.5077 32.6542 31.604 32.7414 31.705V33.8434H31.8011C31.5685 33.6033 31.3328 33.3543 31.0924 33.0923C30.7562 33.377 30.3921 33.6272 30.0205 33.8434H29.2964V30.3984H32.7414V31.0385Z" fill="#838383"/>
    <path fill-rule="evenodd" clip-rule="evenodd" d="M33.0627 30.3984C32.9763 30.6082 32.8719 30.8215 32.7451 31.0385V30.3984H33.0627ZM32.7451 31.705C33.2743 32.3184 34.0184 33.1064 34.7334 33.8434H32.7451V31.705Z" fill="#838383"/>
    <path fill-rule="evenodd" clip-rule="evenodd" d="M18.961 34.7876C18.3108 35.4256 17.6664 36.0361 16.9888 36.7135C16.5084 36.2333 16.0293 35.7541 15.5562 35.2809C15.9508 34.8862 16.454 34.3784 16.9727 33.8438H18.961V34.7876Z" fill="white"/>
    <path fill-rule="evenodd" clip-rule="evenodd" d="M22.4089 34.22C22.1681 34.1089 21.9248 33.9834 21.6847 33.8438H22.4089V34.22ZM19.9041 33.8438C19.5865 34.1715 19.2745 34.4826 18.9639 34.7876V33.8438H19.9041Z" fill="white"/>
    <path fill-rule="evenodd" clip-rule="evenodd" d="M25.0394 33.8438V34.8463C24.5705 34.9391 23.5153 34.7303 22.4092 34.22V33.8438H25.0394Z" fill="#838383"/>
    <path fill-rule="evenodd" clip-rule="evenodd" d="M29.2983 34.22C28.1921 34.7303 27.1368 34.9391 26.668 34.8463V33.8438H29.2983V34.22Z" fill="#838383"/>
    <path fill-rule="evenodd" clip-rule="evenodd" d="M32.7414 34.7876C32.4306 34.4826 32.1186 34.1715 31.8011 33.8438H32.7414V34.7876ZM30.0205 33.8438C29.7804 33.9834 29.5372 34.1089 29.2964 34.22V33.8438H30.0205Z" fill="white"/>
    <path fill-rule="evenodd" clip-rule="evenodd" d="M34.7334 33.8438C35.252 34.3784 35.7552 34.8862 36.15 35.2809C35.6767 35.7541 35.1975 36.2333 34.7172 36.7135C34.0397 36.0361 33.3953 35.4256 32.7451 34.7876V33.8438H34.7334Z" fill="white"/>
    <path fill-rule="evenodd" clip-rule="evenodd" d="M30.1338 15.8264H31.7395V14.2207H30.1338V15.8264Z" fill="#D3D3D3"/>
    <path fill-rule="evenodd" clip-rule="evenodd" d="M32.9194 22.9912H35.3364V20.5742H32.9194V22.9912Z" fill="#D3D3D3"/>
    <path fill-rule="evenodd" clip-rule="evenodd" d="M30.062 22.1221H32.479V19.7051H30.062V22.1221Z" fill="white"/>
    <path fill-rule="evenodd" clip-rule="evenodd" d="M32.7041 19.8322H34.3098V18.2266H32.7041V19.8322Z" fill="white"/>
    <path fill-rule="evenodd" clip-rule="evenodd" d="M35.0591 18.2688H36.0055V17.3223H35.0591V18.2688Z" fill="#D3D3D3"/>
    <path fill-rule="evenodd" clip-rule="evenodd" d="M29.9219 18.0071H30.8685V17.0605H29.9219V18.0071Z" fill="#D3D3D3"/>
    <path fill-rule="evenodd" clip-rule="evenodd" d="M28.7734 13.4075H29.72V12.4609H28.7734V13.4075Z" fill="white"/>
    <path fill-rule="evenodd" clip-rule="evenodd" d="M26.4834 16.2405H28.7737V13.9502H26.4834V16.2405Z" fill="white"/>
    <path fill-rule="evenodd" clip-rule="evenodd" d="M33.0627 30.4C33.5505 29.2141 33.4634 28.1443 33.649 27.2023V27.2171H36.1902V26.9551H32.7451V30.4H33.0627Z" fill="#838383"/>
    <path d="M44.863 53.556L40.626 55.9582L34.5074 45.1346L34.2575 45.2398C32.0138 46.1856 29.677 46.7257 27.3398 46.8844C24.9383 47.0473 22.5371 46.8072 20.2369 46.1908C17.5036 45.4586 14.9126 44.195 12.6326 42.4455C10.438 40.7614 8.53057 38.6265 7.06097 36.0809C5.59122 33.5354 4.69591 30.8161 4.33489 28.0738C3.96 25.2253 4.16135 22.3498 4.89394 19.6157C5.62632 16.8825 6.88979 14.2915 8.63929 12.0114C10.3232 9.81684 12.4584 7.90954 15.0039 6.4398L15.0036 6.43924C17.5487 4.9701 20.2679 4.07488 23.011 3.71387C25.8594 3.33888 28.7351 3.54023 31.4692 4.27281C34.2024 5.00515 36.7933 6.26877 39.0735 8.01827C41.2688 9.70289 43.1762 11.8374 44.645 14.3816V14.3827C46.1146 16.9282 47.01 19.6474 47.3709 22.3897C47.746 25.2383 47.5446 28.1139 46.812 30.848C46.1935 33.1564 45.1964 35.3626 43.8485 37.3653C42.5376 39.3125 40.8932 41.0692 38.9404 42.5419L38.7275 42.7025L44.863 53.556ZM23.6526 8.56398C21.5268 8.84383 19.4197 9.53745 17.4484 10.6756L17.4487 10.6761C15.4763 11.815 13.8222 13.2926 12.5178 14.9923C11.1626 16.7585 10.1839 18.7652 9.61673 20.8816C9.04984 22.9971 8.8944 25.2242 9.18511 27.4323C9.46486 29.5572 10.1585 31.6636 11.2967 33.6353C12.4357 35.6081 13.9135 37.2623 15.6134 38.567C17.3796 39.9222 19.3863 40.901 21.5027 41.4681C23.6182 42.0349 25.8453 42.1905 28.0534 41.8997C30.1784 41.6199 32.2849 40.9265 34.2563 39.7882C36.2291 38.6493 37.8835 37.1714 39.188 35.4714C40.5434 33.7051 41.5222 31.6984 42.0892 29.5821C42.6561 27.4667 42.8117 25.2395 42.5209 23.0314C42.2411 20.9066 41.5476 18.7999 40.4093 16.8285V16.8273C39.2712 14.856 37.7934 13.202 36.0924 11.8968C34.3262 10.5415 32.3195 9.56264 30.2032 8.9956C28.0877 8.42881 25.8606 8.27327 23.6526 8.56398Z" fill="white"/>
  </g>
  <path d="M65.5115 39.25V19.5008H69.0891V28.575H69.3302L77.0351 19.5008H81.4034L73.766 28.3629L81.4709 39.25H77.1701L71.2781 30.7833L69.0891 33.3677V39.25H65.5115ZM83.8889 39.25V19.5008H96.7336V22.4998H87.4666V27.8614H96.0683V30.8604H87.4666V36.251H96.8108V39.25H83.8889ZM99.0335 19.5008H103.074L107.905 28.2375H108.098L112.929 19.5008H116.97L109.786 31.8826V39.25H106.218V31.8826L99.0335 19.5008ZM119.504 39.25V19.5008H123.081V36.251H131.779V39.25H119.504ZM138.163 39.25H134.344L141.297 19.5008H145.714L152.676 39.25H148.857L143.583 23.5509H143.428L138.163 39.25ZM138.288 31.5065H148.703V34.3802H138.288V31.5065ZM155.277 39.25V19.5008H162.838C164.265 19.5008 165.451 19.7258 166.396 20.1758C167.347 20.6194 168.058 21.2269 168.527 21.9984C169.003 22.7698 169.241 23.6441 169.241 24.6213C169.241 25.4249 169.086 26.1128 168.778 26.6849C168.469 27.2507 168.055 27.7103 167.534 28.0639C167.013 28.4175 166.431 28.6714 165.788 28.8257V29.0186C166.489 29.0572 167.161 29.2725 167.804 29.6647C168.453 30.0504 168.983 30.5969 169.395 31.304C169.806 32.0112 170.012 32.8662 170.012 33.8691C170.012 34.8913 169.765 35.8106 169.27 36.6271C168.775 37.4371 168.029 38.0767 167.032 38.546C166.036 39.0153 164.782 39.25 163.272 39.25H155.277ZM158.855 36.2606H162.703C164.001 36.2606 164.937 36.0131 165.509 35.5181C166.087 35.0166 166.377 34.3738 166.377 33.5895C166.377 33.0044 166.232 32.4773 165.943 32.008C165.653 31.5322 165.242 31.1594 164.708 30.8894C164.175 30.6129 163.538 30.4747 162.799 30.4747H158.855V36.2606ZM158.855 27.9H162.394C163.011 27.9 163.567 27.7875 164.062 27.5625C164.557 27.331 164.946 27.0064 165.229 26.5885C165.518 26.1642 165.663 25.6628 165.663 25.0842C165.663 24.3192 165.393 23.6891 164.853 23.1941C164.319 22.6991 163.525 22.4516 162.471 22.4516H158.855V27.9ZM183.857 24.9299C183.767 24.0877 183.388 23.432 182.719 22.9627C182.057 22.4934 181.196 22.2587 180.135 22.2587C179.389 22.2587 178.75 22.3712 178.216 22.5962C177.682 22.8213 177.274 23.1266 176.991 23.5123C176.708 23.8981 176.564 24.3384 176.557 24.8335C176.557 25.2449 176.651 25.6017 176.837 25.9039C177.03 26.206 177.29 26.4632 177.618 26.6753C177.946 26.881 178.309 27.0546 178.708 27.196C179.106 27.3375 179.508 27.4564 179.913 27.5528L181.765 28.0157C182.51 28.1893 183.227 28.4239 183.915 28.7197C184.609 29.0154 185.23 29.3883 185.776 29.8383C186.329 30.2883 186.766 30.8315 187.088 31.468C187.409 32.1044 187.57 32.8501 187.57 33.7052C187.57 34.8624 187.274 35.8813 186.683 36.7621C186.091 37.6364 185.236 38.321 184.118 38.8161C183.005 39.3046 181.659 39.5489 180.077 39.5489C178.541 39.5489 177.207 39.3111 176.075 38.8353C174.95 38.3596 174.069 37.6653 173.433 36.7524C172.803 35.8395 172.462 34.7274 172.411 33.4159H175.931C175.982 34.1038 176.194 34.6759 176.567 35.1324C176.94 35.5888 177.425 35.9295 178.023 36.1545C178.627 36.3795 179.302 36.4921 180.048 36.4921C180.826 36.4921 181.508 36.3763 182.093 36.1449C182.684 35.907 183.147 35.5792 183.481 35.1613C183.815 34.737 183.986 34.242 183.992 33.6762C183.986 33.1619 183.835 32.7376 183.539 32.4033C183.243 32.0626 182.829 31.7798 182.295 31.5547C181.768 31.3233 181.151 31.1176 180.444 30.9376L178.197 30.359C176.57 29.9411 175.284 29.3079 174.339 28.4593C173.401 27.6043 172.932 26.4696 172.932 25.0553C172.932 23.8916 173.247 22.8727 173.877 21.9984C174.513 21.1241 175.378 20.4458 176.471 19.9637C177.563 19.4751 178.801 19.2308 180.183 19.2308C181.585 19.2308 182.813 19.4751 183.867 19.9637C184.928 20.4458 185.76 21.1176 186.365 21.9791C186.969 22.8341 187.281 23.8177 187.3 24.9299H183.857Z" fill="white"/>
  <defs>
    <clipPath id="clip0_12479_41117">
      <rect width="43.4483" height="52.5" fill="white" transform="translate(4.125 3.5)"/>
    </clipPath>
  </defs>
</svg>
