<svg width="64" height="64" viewBox="0 0 64 64" fill="none" xmlns="http://www.w3.org/2000/svg">
<path d="M14 5H6V13M52 5H60V13M60 51V59H52M14 59H6V51" stroke="#99C2FF" stroke-opacity="0.2" stroke-width="2"/>
<path d="M14 5H6V13M52 5H60V13M60 51V59H52M14 59H6V51" stroke="url(#paint0_linear_5134_69326)" stroke-opacity="0.3" stroke-width="2"/>
<path d="M14 5H6V13M52 5H60V13M60 51V59H52M14 59H6V51" stroke="url(#paint1_radial_5134_69326)" stroke-opacity="0.1" stroke-width="2"/>
<g style="mix-blend-mode:overlay">
<path d="M14 5H6V13M52 5H60V13M60 51V59H52M14 59H6V51" stroke="url(#paint2_linear_5134_69326)" stroke-opacity="0.12" stroke-width="2" stroke-linecap="round"/>
</g>
<path fill-rule="evenodd" clip-rule="evenodd" d="M33.0004 13C28.8366 13 24.9133 14.0171 21.4626 15.8156L20.5758 16.2778L19.6515 14.5042L20.5383 14.0421C24.2676 12.0983 28.5072 11 33.0004 11C37.4937 11 41.7333 12.0983 45.4626 14.0421L46.3494 14.5042L45.425 16.2778L44.5383 15.8156C41.0875 14.0171 37.1642 13 33.0004 13ZM18.0004 38C18.0004 29.7157 24.7162 23 33.0004 23C41.2847 23 48.0004 29.7157 48.0004 38C48.0004 38.0019 48.0004 38.0037 48.0004 38.0056C47.9974 40.2122 46.2077 42 44.0004 42C41.7913 42 40.0004 40.2091 40.0004 38L40.0004 37H39.9296C39.4443 33.6077 36.5269 31 33.0004 31C29.1344 31 26.0004 34.134 26.0004 38C26.0004 42.8516 28.4278 46.5857 30.7745 49.0627C31.9521 50.3058 33.1273 51.2523 34.0087 51.8888C34.4502 52.2076 34.82 52.4502 35.0825 52.6148C35.2138 52.6971 35.3184 52.7601 35.3919 52.8033C35.4287 52.825 35.4577 52.8417 35.4783 52.8535L35.503 52.8675L35.5105 52.8718L35.5131 52.8732L35.514 52.8737C35.5144 52.874 35.5148 52.8742 36.0004 52L35.5148 52.8742L36.389 53.3598L37.3602 51.6115L36.4871 51.1264L36.487 51.1263L36.4866 51.1261L36.4861 51.1258L36.4848 51.1251L36.4709 51.1172L36.4437 51.1015L36.4068 51.08C36.3485 51.0456 36.2597 50.9923 36.1449 50.9203C35.9152 50.7763 35.582 50.558 35.1797 50.2674C34.3735 49.6852 33.2988 48.8192 32.2264 47.6873C30.0731 45.4143 28.0004 42.1484 28.0004 38C28.0004 35.2386 30.239 33 33.0004 33C35.7619 33 38.0004 35.2386 38.0004 38V39H38.0834C38.5595 41.8377 41.0274 44 44.0004 44C46.9734 44 49.4414 41.8377 49.9175 39H50.0004V38.0068C50.0004 38.0046 50.0004 38.0023 50.0004 38L50.0004 37H49.9715C49.4539 28.0766 42.0536 21 33.0004 21C23.6116 21 16.0004 28.6112 16.0004 38C16.0004 40.6654 16.6146 43.1902 17.71 45.4381L18.148 46.337L19.9459 45.4609L19.5079 44.5619C18.5425 42.581 18.0004 40.3552 18.0004 38ZM33.0004 28C27.4776 28 23.0004 32.4772 23.0004 38C23.0004 41.2898 24.2843 44.3613 25.615 46.6507C26.276 47.7878 26.9373 48.7128 27.4318 49.3515C27.6787 49.6705 27.8832 49.9169 28.024 50.0816C28.0944 50.1639 28.1489 50.2257 28.1846 50.2658C28.2025 50.2858 28.2158 50.3004 28.224 50.3094L28.2325 50.3188L28.2333 50.3197L28.2337 50.32L28.2339 50.3202L28.2339 50.3203L28.9137 51.0526L27.4479 52.4132L26.7675 51.6803L27.5004 51C26.7675 51.6803 26.7673 51.6801 26.7671 51.6798L26.7665 51.6792L26.765 51.6775L26.7604 51.6726L26.7453 51.6561C26.7327 51.6423 26.7151 51.6228 26.6927 51.5977C26.6479 51.5475 26.5842 51.4751 26.5042 51.3816C26.3442 51.1946 26.119 50.9229 25.8503 50.5759C25.3136 49.8826 24.5999 48.8842 23.8859 47.6557C22.4666 45.2139 21.0004 41.7853 21.0004 38C21.0004 31.3726 26.373 26 33.0004 26C39.6279 26 45.0004 31.3726 45.0004 38V39H43.0004V38C43.0004 32.4772 38.5233 28 33.0004 28ZM15.9597 27.5245C19.4821 21.8075 25.797 18 33.0004 18C40.2037 18 46.5187 21.8075 50.041 27.5245L50.5655 28.3759L52.2683 27.3268L51.7437 26.4755C47.8726 20.1922 40.9265 16 33.0004 16C25.0743 16 18.1282 20.1922 14.257 26.4755L13.7324 27.3268L15.4352 28.3759L15.9597 27.5245ZM34.0004 36V37C34.0004 42.5228 38.4776 47 44.0004 47C44.6226 47 45.2305 46.9433 45.8198 46.8351L46.8033 46.6544L47.1646 48.6215L46.1811 48.8022C45.4732 48.9322 44.7443 49 44.0004 49C37.373 49 32.0004 43.6274 32.0004 37V36H34.0004Z" fill="#99C2FF" fill-opacity="0.2"/>
<path fill-rule="evenodd" clip-rule="evenodd" d="M33.0004 13C28.8366 13 24.9133 14.0171 21.4626 15.8156L20.5758 16.2778L19.6515 14.5042L20.5383 14.0421C24.2676 12.0983 28.5072 11 33.0004 11C37.4937 11 41.7333 12.0983 45.4626 14.0421L46.3494 14.5042L45.425 16.2778L44.5383 15.8156C41.0875 14.0171 37.1642 13 33.0004 13ZM18.0004 38C18.0004 29.7157 24.7162 23 33.0004 23C41.2847 23 48.0004 29.7157 48.0004 38C48.0004 38.0019 48.0004 38.0037 48.0004 38.0056C47.9974 40.2122 46.2077 42 44.0004 42C41.7913 42 40.0004 40.2091 40.0004 38L40.0004 37H39.9296C39.4443 33.6077 36.5269 31 33.0004 31C29.1344 31 26.0004 34.134 26.0004 38C26.0004 42.8516 28.4278 46.5857 30.7745 49.0627C31.9521 50.3058 33.1273 51.2523 34.0087 51.8888C34.4502 52.2076 34.82 52.4502 35.0825 52.6148C35.2138 52.6971 35.3184 52.7601 35.3919 52.8033C35.4287 52.825 35.4577 52.8417 35.4783 52.8535L35.503 52.8675L35.5105 52.8718L35.5131 52.8732L35.514 52.8737C35.5144 52.874 35.5148 52.8742 36.0004 52L35.5148 52.8742L36.389 53.3598L37.3602 51.6115L36.4871 51.1264L36.487 51.1263L36.4866 51.1261L36.4861 51.1258L36.4848 51.1251L36.4709 51.1172L36.4437 51.1015L36.4068 51.08C36.3485 51.0456 36.2597 50.9923 36.1449 50.9203C35.9152 50.7763 35.582 50.558 35.1797 50.2674C34.3735 49.6852 33.2988 48.8192 32.2264 47.6873C30.0731 45.4143 28.0004 42.1484 28.0004 38C28.0004 35.2386 30.239 33 33.0004 33C35.7619 33 38.0004 35.2386 38.0004 38V39H38.0834C38.5595 41.8377 41.0274 44 44.0004 44C46.9734 44 49.4414 41.8377 49.9175 39H50.0004V38.0068C50.0004 38.0046 50.0004 38.0023 50.0004 38L50.0004 37H49.9715C49.4539 28.0766 42.0536 21 33.0004 21C23.6116 21 16.0004 28.6112 16.0004 38C16.0004 40.6654 16.6146 43.1902 17.71 45.4381L18.148 46.337L19.9459 45.4609L19.5079 44.5619C18.5425 42.581 18.0004 40.3552 18.0004 38ZM33.0004 28C27.4776 28 23.0004 32.4772 23.0004 38C23.0004 41.2898 24.2843 44.3613 25.615 46.6507C26.276 47.7878 26.9373 48.7128 27.4318 49.3515C27.6787 49.6705 27.8832 49.9169 28.024 50.0816C28.0944 50.1639 28.1489 50.2257 28.1846 50.2658C28.2025 50.2858 28.2158 50.3004 28.224 50.3094L28.2325 50.3188L28.2333 50.3197L28.2337 50.32L28.2339 50.3202L28.2339 50.3203L28.9137 51.0526L27.4479 52.4132L26.7675 51.6803L27.5004 51C26.7675 51.6803 26.7673 51.6801 26.7671 51.6798L26.7665 51.6792L26.765 51.6775L26.7604 51.6726L26.7453 51.6561C26.7327 51.6423 26.7151 51.6228 26.6927 51.5977C26.6479 51.5475 26.5842 51.4751 26.5042 51.3816C26.3442 51.1946 26.119 50.9229 25.8503 50.5759C25.3136 49.8826 24.5999 48.8842 23.8859 47.6557C22.4666 45.2139 21.0004 41.7853 21.0004 38C21.0004 31.3726 26.373 26 33.0004 26C39.6279 26 45.0004 31.3726 45.0004 38V39H43.0004V38C43.0004 32.4772 38.5233 28 33.0004 28ZM15.9597 27.5245C19.4821 21.8075 25.797 18 33.0004 18C40.2037 18 46.5187 21.8075 50.041 27.5245L50.5655 28.3759L52.2683 27.3268L51.7437 26.4755C47.8726 20.1922 40.9265 16 33.0004 16C25.0743 16 18.1282 20.1922 14.257 26.4755L13.7324 27.3268L15.4352 28.3759L15.9597 27.5245ZM34.0004 36V37C34.0004 42.5228 38.4776 47 44.0004 47C44.6226 47 45.2305 46.9433 45.8198 46.8351L46.8033 46.6544L47.1646 48.6215L46.1811 48.8022C45.4732 48.9322 44.7443 49 44.0004 49C37.373 49 32.0004 43.6274 32.0004 37V36H34.0004Z" fill="url(#paint3_linear_5134_69326)" fill-opacity="0.3"/>
<path fill-rule="evenodd" clip-rule="evenodd" d="M33.0004 13C28.8366 13 24.9133 14.0171 21.4626 15.8156L20.5758 16.2778L19.6515 14.5042L20.5383 14.0421C24.2676 12.0983 28.5072 11 33.0004 11C37.4937 11 41.7333 12.0983 45.4626 14.0421L46.3494 14.5042L45.425 16.2778L44.5383 15.8156C41.0875 14.0171 37.1642 13 33.0004 13ZM18.0004 38C18.0004 29.7157 24.7162 23 33.0004 23C41.2847 23 48.0004 29.7157 48.0004 38C48.0004 38.0019 48.0004 38.0037 48.0004 38.0056C47.9974 40.2122 46.2077 42 44.0004 42C41.7913 42 40.0004 40.2091 40.0004 38L40.0004 37H39.9296C39.4443 33.6077 36.5269 31 33.0004 31C29.1344 31 26.0004 34.134 26.0004 38C26.0004 42.8516 28.4278 46.5857 30.7745 49.0627C31.9521 50.3058 33.1273 51.2523 34.0087 51.8888C34.4502 52.2076 34.82 52.4502 35.0825 52.6148C35.2138 52.6971 35.3184 52.7601 35.3919 52.8033C35.4287 52.825 35.4577 52.8417 35.4783 52.8535L35.503 52.8675L35.5105 52.8718L35.5131 52.8732L35.514 52.8737C35.5144 52.874 35.5148 52.8742 36.0004 52L35.5148 52.8742L36.389 53.3598L37.3602 51.6115L36.4871 51.1264L36.487 51.1263L36.4866 51.1261L36.4861 51.1258L36.4848 51.1251L36.4709 51.1172L36.4437 51.1015L36.4068 51.08C36.3485 51.0456 36.2597 50.9923 36.1449 50.9203C35.9152 50.7763 35.582 50.558 35.1797 50.2674C34.3735 49.6852 33.2988 48.8192 32.2264 47.6873C30.0731 45.4143 28.0004 42.1484 28.0004 38C28.0004 35.2386 30.239 33 33.0004 33C35.7619 33 38.0004 35.2386 38.0004 38V39H38.0834C38.5595 41.8377 41.0274 44 44.0004 44C46.9734 44 49.4414 41.8377 49.9175 39H50.0004V38.0068C50.0004 38.0046 50.0004 38.0023 50.0004 38L50.0004 37H49.9715C49.4539 28.0766 42.0536 21 33.0004 21C23.6116 21 16.0004 28.6112 16.0004 38C16.0004 40.6654 16.6146 43.1902 17.71 45.4381L18.148 46.337L19.9459 45.4609L19.5079 44.5619C18.5425 42.581 18.0004 40.3552 18.0004 38ZM33.0004 28C27.4776 28 23.0004 32.4772 23.0004 38C23.0004 41.2898 24.2843 44.3613 25.615 46.6507C26.276 47.7878 26.9373 48.7128 27.4318 49.3515C27.6787 49.6705 27.8832 49.9169 28.024 50.0816C28.0944 50.1639 28.1489 50.2257 28.1846 50.2658C28.2025 50.2858 28.2158 50.3004 28.224 50.3094L28.2325 50.3188L28.2333 50.3197L28.2337 50.32L28.2339 50.3202L28.2339 50.3203L28.9137 51.0526L27.4479 52.4132L26.7675 51.6803L27.5004 51C26.7675 51.6803 26.7673 51.6801 26.7671 51.6798L26.7665 51.6792L26.765 51.6775L26.7604 51.6726L26.7453 51.6561C26.7327 51.6423 26.7151 51.6228 26.6927 51.5977C26.6479 51.5475 26.5842 51.4751 26.5042 51.3816C26.3442 51.1946 26.119 50.9229 25.8503 50.5759C25.3136 49.8826 24.5999 48.8842 23.8859 47.6557C22.4666 45.2139 21.0004 41.7853 21.0004 38C21.0004 31.3726 26.373 26 33.0004 26C39.6279 26 45.0004 31.3726 45.0004 38V39H43.0004V38C43.0004 32.4772 38.5233 28 33.0004 28ZM15.9597 27.5245C19.4821 21.8075 25.797 18 33.0004 18C40.2037 18 46.5187 21.8075 50.041 27.5245L50.5655 28.3759L52.2683 27.3268L51.7437 26.4755C47.8726 20.1922 40.9265 16 33.0004 16C25.0743 16 18.1282 20.1922 14.257 26.4755L13.7324 27.3268L15.4352 28.3759L15.9597 27.5245ZM34.0004 36V37C34.0004 42.5228 38.4776 47 44.0004 47C44.6226 47 45.2305 46.9433 45.8198 46.8351L46.8033 46.6544L47.1646 48.6215L46.1811 48.8022C45.4732 48.9322 44.7443 49 44.0004 49C37.373 49 32.0004 43.6274 32.0004 37V36H34.0004Z" fill="url(#paint4_radial_5134_69326)" fill-opacity="0.1"/>
<g style="mix-blend-mode:overlay">
<path fill-rule="evenodd" clip-rule="evenodd" d="M33.0004 13C28.8366 13 24.9133 14.0171 21.4626 15.8156L20.5758 16.2778L19.6515 14.5042L20.5383 14.0421C24.2676 12.0983 28.5072 11 33.0004 11C37.4937 11 41.7333 12.0983 45.4626 14.0421L46.3494 14.5042L45.425 16.2778L44.5383 15.8156C41.0875 14.0171 37.1642 13 33.0004 13ZM18.0004 38C18.0004 29.7157 24.7162 23 33.0004 23C41.2847 23 48.0004 29.7157 48.0004 38C48.0004 38.0019 48.0004 38.0037 48.0004 38.0056C47.9974 40.2122 46.2077 42 44.0004 42C41.7913 42 40.0004 40.2091 40.0004 38L40.0004 37H39.9296C39.4443 33.6077 36.5269 31 33.0004 31C29.1344 31 26.0004 34.134 26.0004 38C26.0004 42.8516 28.4278 46.5857 30.7745 49.0627C31.9521 50.3058 33.1273 51.2523 34.0087 51.8888C34.4502 52.2076 34.82 52.4502 35.0825 52.6148C35.2138 52.6971 35.3184 52.7601 35.3919 52.8033C35.4287 52.825 35.4577 52.8417 35.4783 52.8535L35.503 52.8675L35.5105 52.8718L35.5131 52.8732L35.514 52.8737C35.5144 52.874 35.5148 52.8742 36.0004 52L35.5148 52.8742L36.389 53.3598L37.3602 51.6115L36.4871 51.1264L36.487 51.1263L36.4866 51.1261L36.4861 51.1258L36.4848 51.1251L36.4709 51.1172L36.4437 51.1015L36.4068 51.08C36.3485 51.0456 36.2597 50.9923 36.1449 50.9203C35.9152 50.7763 35.582 50.558 35.1797 50.2674C34.3735 49.6852 33.2988 48.8192 32.2264 47.6873C30.0731 45.4143 28.0004 42.1484 28.0004 38C28.0004 35.2386 30.239 33 33.0004 33C35.7619 33 38.0004 35.2386 38.0004 38V39H38.0834C38.5595 41.8377 41.0274 44 44.0004 44C46.9734 44 49.4414 41.8377 49.9175 39H50.0004V38.0068C50.0004 38.0046 50.0004 38.0023 50.0004 38L50.0004 37H49.9715C49.4539 28.0766 42.0536 21 33.0004 21C23.6116 21 16.0004 28.6112 16.0004 38C16.0004 40.6654 16.6146 43.1902 17.71 45.4381L18.148 46.337L19.9459 45.4609L19.5079 44.5619C18.5425 42.581 18.0004 40.3552 18.0004 38ZM33.0004 28C27.4776 28 23.0004 32.4772 23.0004 38C23.0004 41.2898 24.2843 44.3613 25.615 46.6507C26.276 47.7878 26.9373 48.7128 27.4318 49.3515C27.6787 49.6705 27.8832 49.9169 28.024 50.0816C28.0944 50.1639 28.1489 50.2257 28.1846 50.2658C28.2025 50.2858 28.2158 50.3004 28.224 50.3094L28.2325 50.3188L28.2333 50.3197L28.2337 50.32L28.2339 50.3202L28.2339 50.3203L28.9137 51.0526L27.4479 52.4132L26.7675 51.6803L27.5004 51C26.7675 51.6803 26.7673 51.6801 26.7671 51.6798L26.7665 51.6792L26.765 51.6775L26.7604 51.6726L26.7453 51.6561C26.7327 51.6423 26.7151 51.6228 26.6927 51.5977C26.6479 51.5475 26.5842 51.4751 26.5042 51.3816C26.3442 51.1946 26.119 50.9229 25.8503 50.5759C25.3136 49.8826 24.5999 48.8842 23.8859 47.6557C22.4666 45.2139 21.0004 41.7853 21.0004 38C21.0004 31.3726 26.373 26 33.0004 26C39.6279 26 45.0004 31.3726 45.0004 38V39H43.0004V38C43.0004 32.4772 38.5233 28 33.0004 28ZM15.9597 27.5245C19.4821 21.8075 25.797 18 33.0004 18C40.2037 18 46.5187 21.8075 50.041 27.5245L50.5655 28.3759L52.2683 27.3268L51.7437 26.4755C47.8726 20.1922 40.9265 16 33.0004 16C25.0743 16 18.1282 20.1922 14.257 26.4755L13.7324 27.3268L15.4352 28.3759L15.9597 27.5245ZM34.0004 36V37C34.0004 42.5228 38.4776 47 44.0004 47C44.6226 47 45.2305 46.9433 45.8198 46.8351L46.8033 46.6544L47.1646 48.6215L46.1811 48.8022C45.4732 48.9322 44.7443 49 44.0004 49C37.373 49 32.0004 43.6274 32.0004 37V36H34.0004Z" fill="url(#paint5_linear_5134_69326)" fill-opacity="0.12"/>
</g>
<path fill-rule="evenodd" clip-rule="evenodd" d="M21.4632 15.8156C24.9139 14.0171 28.8372 13 33.001 13C37.1648 13 41.0881 14.0171 44.5388 15.8156L45.4256 16.2778L46.3499 14.5042L45.4632 14.0421C41.7338 12.0983 37.4942 11 33.001 11C28.5078 11 24.2681 12.0983 20.5388 14.0421L19.652 14.5042L20.5764 16.2778L21.4632 15.8156ZM26.2263 19.1378C28.3101 18.4012 30.5536 18 32.8929 18C35.2323 18 37.4757 18.4012 39.5596 19.1378L40.5024 19.471L41.1689 17.5853L40.2261 17.2521C37.9311 16.4409 35.4624 16 32.8929 16C30.3234 16 27.8547 16.4409 25.5598 17.2521C22.8262 18.2183 20.3414 19.7088 18.2261 21.6021C16.6445 23.0177 15.2688 24.6589 14.1495 26.4755L13.625 27.3269L15.3278 28.376L15.8523 27.5246C16.8699 25.8729 18.1211 24.3801 19.5599 23.0923C21.4843 21.37 23.7432 20.0154 26.2263 19.1378ZM33.0009 23C30.0351 23 27.2731 23.8597 24.9471 25.3432C23.2266 26.4404 21.7445 27.8789 20.5966 29.5632C19.6361 30.9724 18.91 32.553 18.4734 34.2493C18.1651 35.447 18.0009 36.7036 18.0009 38C18.0009 39.1285 18.1253 40.2268 18.3608 41.2822C18.6171 42.4307 19.0051 43.5294 19.5083 44.562L19.9464 45.4609L18.1485 46.337L17.7104 45.4381C17.1398 44.2671 16.6996 43.0207 16.4089 41.7178C16.1416 40.5203 16.0009 39.276 16.0009 38C16.0009 36.534 16.1867 35.11 16.5365 33.7508C17.0319 31.826 17.8557 30.0335 18.9439 28.4368C20.2442 26.5291 21.9226 24.8999 23.8717 23.6569C26.5094 21.9747 29.6429 21 33.0009 21C35.6663 21 38.1911 21.6141 40.4389 22.7095C42.9174 23.9173 45.0574 25.7092 46.6808 27.9057L47.2751 28.7099L45.6667 29.8986L45.0724 29.0944C43.6387 27.1546 41.749 25.5728 39.5628 24.5074C37.5819 23.5421 35.3561 23 33.0009 23ZM27.2505 29.8176L28.0681 29.2419L26.9166 27.6066L26.099 28.1824C24.6765 29.1841 23.4816 30.4871 22.6069 31.9993C21.5853 33.7654 21.0009 35.816 21.0009 38C21.0009 39.6894 21.293 41.3048 21.7392 42.7881C22.2737 44.5651 23.0334 46.1656 23.7945 47.4965C24.5237 48.7715 25.2603 49.8097 25.816 50.5309C26.0942 50.8919 26.3281 51.1748 26.4942 51.3695C26.5774 51.4669 26.6437 51.5423 26.6902 51.5945L26.7086 51.615L26.745 51.6553L26.7606 51.6723L26.7653 51.6775L26.7669 51.6792L26.7675 51.6799L26.7678 51.6801C26.7679 51.6803 26.768 51.6804 27.5009 51L26.768 51.6804L27.4483 52.4133L28.9141 51.0526L28.2344 50.3203L28.2343 50.3203L28.2341 50.32L28.234 50.3199L28.2338 50.3197L28.2329 50.3187L28.2239 50.3089C28.2153 50.2994 28.2014 50.2841 28.1828 50.2632C28.1454 50.2213 28.0886 50.1568 28.0154 50.0709C27.8687 49.8992 27.6562 49.6423 27.4003 49.3102C26.8878 48.6451 26.2053 47.6832 25.5306 46.5036C24.8253 45.2702 24.1352 43.8103 23.6544 42.212C23.2535 40.8793 23.0009 39.4597 23.0009 38C23.0009 36.1769 23.4878 34.4706 24.3381 33.0008C25.0672 31.7403 26.0639 30.6532 27.2505 29.8176ZM29.6678 34.2729C30.5531 33.4806 31.7196 33 33.0009 33C34.4816 33 35.811 33.6424 36.728 34.6669C37.5203 35.5522 38.0009 36.7188 38.0009 38V39H40.0009V38C40.0009 36.2078 39.3261 34.5709 38.2182 33.3331C36.9379 31.9026 35.0741 31 33.0009 31C31.2087 31 29.5717 31.6748 28.334 32.7827C26.9035 34.063 26.0009 35.9268 26.0009 38C26.0009 39.7572 26.3202 41.3724 26.8409 42.8353C27.5861 44.9294 28.7411 46.7044 29.9538 48.1442C31.2542 49.6882 32.6355 50.8641 33.6894 51.6536C34.2175 52.0493 34.6667 52.3503 34.9869 52.5542C35.1472 52.6562 35.2754 52.734 35.3654 52.7874C35.4105 52.8142 35.446 52.8348 35.4712 52.8492L35.5012 52.8663L35.5103 52.8714L35.5133 52.8731L35.5144 52.8737L35.5148 52.874C35.515 52.8741 35.5152 52.8742 36.0009 52L35.5152 52.8742L36.3894 53.3598L37.3607 51.6115L36.4875 51.1264L36.4874 51.1264L36.4871 51.1262L36.4869 51.1261L36.4865 51.1259L36.4843 51.1246L36.4664 51.1144C36.4493 51.1046 36.4221 51.0889 36.3856 51.0672C36.3126 51.0239 36.2024 50.9571 36.061 50.8671C35.778 50.6869 35.3712 50.4146 34.8885 50.053C33.9208 49.328 32.661 48.2538 31.4835 46.8558C30.3856 45.5523 29.3719 43.9822 28.7251 42.1647C28.2747 40.8993 28.0009 39.5105 28.0009 38C28.0009 36.5193 28.6433 35.1899 29.6678 34.2729ZM34.0009 36V37C34.0009 38.2847 34.2426 39.5106 34.6822 40.6363C35.1535 41.8429 35.8528 42.9364 36.728 43.8634C37.7359 44.931 38.9753 45.7761 40.3647 46.3187C41.4903 46.7583 42.7162 47 44.0009 47C44.623 47 45.231 46.9433 45.8202 46.8351L46.8038 46.6544L47.1651 48.6215L46.1815 48.8022C45.4737 48.9322 44.7448 49 44.0009 49C42.4633 49 40.9909 48.7103 39.6371 48.1816C37.9677 47.5297 36.4812 46.5154 35.2737 45.2364C34.225 44.1255 33.3855 42.8137 32.8193 41.3638C32.2906 40.01 32.0009 38.5376 32.0009 37V36H34.0009Z" fill="url(#paint6_linear_5134_69326)"/>
<defs>
<linearGradient id="paint0_linear_5134_69326" x1="60" y1="5" x2="11.4868" y2="63.5465" gradientUnits="userSpaceOnUse">
<stop stop-color="white" stop-opacity="0.6"/>
<stop offset="1" stop-color="white" stop-opacity="0"/>
</linearGradient>
<radialGradient id="paint1_radial_5134_69326" cx="0" cy="0" r="1" gradientUnits="userSpaceOnUse" gradientTransform="translate(36.5 50) rotate(108.145) scale(8.9883 9.83587)">
<stop stop-color="white"/>
<stop offset="1" stop-color="white" stop-opacity="0.2"/>
</radialGradient>
<linearGradient id="paint2_linear_5134_69326" x1="33" y1="5" x2="33" y2="59" gradientUnits="userSpaceOnUse">
<stop stop-color="white"/>
<stop offset="1" stop-color="white" stop-opacity="0.8"/>
</linearGradient>
<linearGradient id="paint3_linear_5134_69326" x1="54.0005" y1="11" x2="39.5005" y2="23.5" gradientUnits="userSpaceOnUse">
<stop stop-color="white"/>
<stop offset="1" stop-color="white" stop-opacity="0"/>
</linearGradient>
<radialGradient id="paint4_radial_5134_69326" cx="0" cy="0" r="1" gradientUnits="userSpaceOnUse" gradientTransform="translate(33.2505 32) rotate(89.3179) scale(21.0015 20.9078)">
<stop stop-color="white"/>
<stop offset="1" stop-color="white" stop-opacity="0.2"/>
</radialGradient>
<linearGradient id="paint5_linear_5134_69326" x1="33.0004" y1="11" x2="33.0004" y2="53.3598" gradientUnits="userSpaceOnUse">
<stop stop-color="white"/>
<stop offset="1" stop-color="white" stop-opacity="0.8"/>
</linearGradient>
<linearGradient id="paint6_linear_5134_69326" x1="13.625" y1="32.1799" x2="47.2751" y2="32.1799" gradientUnits="userSpaceOnUse">
<stop stop-color="#93CEF5"/>
<stop offset="1" stop-color="#3D71FF"/>
</linearGradient>
</defs>
</svg>
