<svg width="224" height="56" viewBox="0 0 224 56" fill="none" xmlns="http://www.w3.org/2000/svg">
  <g clip-path="url(#clip0_12479_41062)">
    <g clip-path="url(#clip1_12479_41062)">
      <path d="M79.2522 21.1131C79.2522 20.8313 79.3729 20.5495 79.5742 20.3482C79.7755 20.147 80.0573 20.0262 80.339 20.0262H90.1612C90.3222 20.0262 90.4832 19.9457 90.604 19.8652C90.7247 19.7444 90.765 19.5834 90.765 19.4224V19.0198C90.765 18.8588 90.6845 18.6978 90.604 18.577C90.4832 18.4563 90.3222 18.416 90.1612 18.416H78.7691C77.964 18.416 77.1992 18.7381 76.6356 19.3016C76.072 19.8652 75.75 20.63 75.75 21.4351V27.111C75.75 27.9161 76.072 28.681 76.6356 29.2445C77.1992 29.8081 77.964 30.1301 78.7691 30.1301H86.659C86.9408 30.1301 87.2226 30.2509 87.4239 30.4924C87.6251 30.6937 87.7459 30.9755 87.7459 31.2573V37.4565C87.7459 37.7383 87.6251 38.0201 87.4239 38.2213C87.2226 38.4226 86.9408 38.5434 86.659 38.5434H77.2797C77.1187 38.5434 76.9576 38.6239 76.8369 38.7044C76.7161 38.8251 76.6759 38.9862 76.6759 39.1472V39.5497C76.6759 39.7107 76.7564 39.8718 76.8369 39.9925C76.9576 40.1133 77.1187 40.1536 77.2797 40.1536H88.1887C88.5913 40.1536 88.9535 40.073 89.3561 39.912C89.7184 39.751 90.0404 39.5497 90.3222 39.2679C90.604 38.9862 90.8053 38.6641 90.9663 38.3018C91.1273 37.9395 91.2078 37.537 91.2078 37.1344V31.4988C91.2078 30.6937 90.8858 29.9289 90.3222 29.3653C89.7586 28.8017 88.9938 28.4797 88.1887 28.4797H80.2988C80.017 28.4797 79.7352 28.3589 79.5339 28.1576C79.3327 27.9564 79.2119 27.6746 79.2119 27.3928V21.1131H79.2522Z" fill="#F0F0F0"/>
      <path d="M188.503 21.1131C188.503 20.8313 188.624 20.5495 188.825 20.3482C189.027 20.147 189.308 20.0262 189.59 20.0262H199.412C199.573 20.0262 199.734 19.9457 199.855 19.8652C199.976 19.7444 200.016 19.5834 200.016 19.4224V19.0198C200.016 18.8588 199.936 18.6978 199.855 18.577C199.734 18.4563 199.573 18.416 199.412 18.416H187.98C187.175 18.416 186.41 18.7381 185.847 19.3016C185.283 19.8652 184.961 20.63 184.961 21.4351V27.111C184.961 27.9161 185.283 28.681 185.847 29.2445C186.41 29.8081 187.175 30.1301 187.98 30.1301H195.87C196.152 30.1301 196.434 30.2509 196.635 30.4924C196.836 30.6937 196.957 30.9755 196.957 31.2573V37.4565C196.957 37.7383 196.836 38.0201 196.635 38.2213C196.434 38.4226 196.152 38.5434 195.87 38.5434H186.491C186.33 38.5434 186.169 38.6239 186.048 38.7044C185.927 38.8251 185.887 38.9862 185.887 39.1472V39.5497C185.887 39.7107 185.967 39.8718 186.048 39.9925C186.169 40.1133 186.33 40.1536 186.491 40.1536H197.44C197.842 40.1536 198.205 40.073 198.607 39.912C198.97 39.751 199.292 39.5497 199.573 39.2679C199.855 38.9862 200.056 38.6641 200.217 38.3018C200.378 37.9395 200.459 37.537 200.459 37.1344V31.4988C200.459 30.6937 200.137 29.9289 199.573 29.3653C199.01 28.8017 198.245 28.4797 197.44 28.4797H189.55C189.268 28.4797 188.986 28.3589 188.785 28.1576C188.584 27.9564 188.463 27.6746 188.463 27.3928V21.1131H188.503Z" fill="#F0F0F0"/>
      <path d="M105.055 38.4621H100.144C99.8617 38.4621 99.5799 38.3413 99.3787 38.0998C99.1774 37.8985 99.0566 37.6167 99.0566 37.335V18.9788C99.0566 18.8178 98.9761 18.6568 98.8956 18.536C98.7748 18.4153 98.6138 18.375 98.4528 18.375H96.1985C96.0375 18.375 95.8765 18.4555 95.7557 18.536C95.635 18.6568 95.5947 18.8178 95.5947 18.9788V37.0532C95.5947 37.8583 95.9168 38.6231 96.4803 39.1867C97.0439 39.7502 97.8087 40.0723 98.6138 40.0723H105.055C105.216 40.0723 105.377 39.9918 105.497 39.9113C105.618 39.7905 105.658 39.6295 105.658 39.4685V39.0659C105.658 38.9854 105.658 38.9049 105.618 38.8244C105.578 38.7439 105.538 38.6634 105.497 38.6231C105.457 38.5829 105.377 38.5023 105.296 38.5023C105.216 38.5023 105.135 38.4621 105.055 38.4621Z" fill="#F0F0F0"/>
      <path d="M141.125 38.4621H142.816C143.098 38.4621 143.379 38.3413 143.581 38.0998C143.782 37.8985 143.903 37.6167 143.903 37.335V18.9788C143.903 18.8178 143.983 18.6568 144.064 18.536C144.184 18.4153 144.345 18.375 144.506 18.375H146.801C146.962 18.375 147.123 18.4555 147.244 18.536C147.365 18.6568 147.405 18.8178 147.405 18.9788V37.0532C147.405 37.8583 147.083 38.6231 146.519 39.1867C145.956 39.7502 145.191 40.0723 144.386 40.0723H141.165C141.004 40.0723 140.843 39.9918 140.723 39.9113C140.602 39.7905 140.562 39.6295 140.562 39.4685V39.0659C140.562 38.9854 140.562 38.9049 140.602 38.8244C140.642 38.7439 140.682 38.6634 140.723 38.6231C140.763 38.5829 140.843 38.5023 140.924 38.5023C140.964 38.5023 141.045 38.4621 141.125 38.4621Z" fill="#F0F0F0"/>
      <path d="M133.959 38.4621H132.268C131.986 38.4621 131.705 38.3413 131.503 38.0998C131.302 37.8985 131.181 37.6167 131.181 37.335V18.9788C131.181 18.8178 131.101 18.6568 131.02 18.536C130.9 18.4153 130.739 18.375 130.578 18.375H128.283C128.122 18.375 127.961 18.4555 127.84 18.536C127.719 18.6568 127.679 18.8178 127.679 18.9788V37.0532C127.679 37.8583 128.001 38.6231 128.565 39.1867C129.128 39.7502 129.893 40.0723 130.698 40.0723H133.919C134.08 40.0723 134.241 39.9918 134.361 39.9113C134.482 39.7905 134.522 39.6295 134.522 39.4685V39.0659C134.522 38.9854 134.522 38.9049 134.482 38.8244C134.442 38.7439 134.402 38.6634 134.361 38.6231C134.321 38.5829 134.241 38.5023 134.16 38.5023C134.12 38.5023 134.039 38.4621 133.959 38.4621Z" fill="#F0F0F0"/>
      <path d="M117.693 38.4621H112.943C112.661 38.4621 112.379 38.3413 112.178 38.0998C111.977 37.8985 111.856 37.6167 111.856 37.335V18.9788C111.856 18.8178 111.776 18.6568 111.695 18.536C111.615 18.4153 111.413 18.375 111.252 18.375H108.958C108.797 18.375 108.636 18.4555 108.515 18.536C108.394 18.6165 108.354 18.8178 108.354 18.9788V37.0532C108.354 37.8583 108.676 38.6231 109.24 39.1867C109.803 39.7502 110.568 40.0723 111.373 40.0723H117.653C117.814 40.0723 117.975 39.9918 118.096 39.9113C118.216 39.7905 118.257 39.6295 118.257 39.4685V39.0659C118.257 38.9854 118.257 38.9049 118.216 38.8244C118.176 38.7439 118.136 38.6634 118.096 38.6231C118.055 38.5829 117.975 38.5023 117.894 38.5023C117.854 38.5023 117.774 38.4621 117.693 38.4621Z" fill="#F0F0F0"/>
      <path d="M179.687 18.416H177.392C177.231 18.416 177.07 18.4965 176.95 18.577C176.829 18.6978 176.789 18.8588 176.789 19.0198V39.4692C176.789 39.6302 176.869 39.7913 176.95 39.912C177.07 40.0328 177.231 40.073 177.392 40.073H179.687C179.848 40.073 180.009 39.9925 180.13 39.912C180.25 39.7913 180.291 39.6302 180.291 39.4692V19.0198C180.291 18.9393 180.291 18.8588 180.25 18.7783C180.21 18.6978 180.17 18.6173 180.13 18.577C180.089 18.5368 180.009 18.4563 179.928 18.4563C179.848 18.416 179.767 18.416 179.687 18.416Z" fill="#F0F0F0"/>
      <path d="M138.705 18.416H136.411C136.25 18.416 136.089 18.4965 135.968 18.577C135.847 18.6978 135.807 18.8588 135.807 19.0198V39.4692C135.807 39.6302 135.888 39.7913 135.968 39.912C136.089 40.0328 136.25 40.073 136.411 40.073H138.705C138.866 40.073 139.028 39.9925 139.148 39.912C139.269 39.7913 139.309 39.6302 139.309 39.4692V19.0198C139.309 18.9393 139.309 18.8588 139.269 18.7783C139.229 18.6978 139.189 18.6173 139.148 18.577C139.108 18.5368 139.028 18.4563 138.947 18.4563C138.866 18.4563 138.786 18.416 138.705 18.416Z" fill="#F0F0F0"/>
      <path d="M158.473 19.9852H156.782C156.5 19.9852 156.218 20.106 156.017 20.3072C155.816 20.5085 155.695 20.7903 155.695 21.0721V39.4685C155.695 39.6295 155.615 39.7905 155.534 39.9113C155.413 40.032 155.252 40.0723 155.091 40.0723H152.797C152.636 40.0723 152.475 39.9918 152.354 39.9113C152.233 39.7905 152.193 39.6295 152.193 39.4685V21.3941C152.193 20.589 152.515 19.8242 153.078 19.2606C153.642 18.697 154.407 18.375 155.212 18.375H158.432C158.593 18.375 158.754 18.4555 158.875 18.536C158.996 18.6568 159.036 18.8178 159.036 18.9788V19.3814C159.036 19.5424 158.996 19.7034 158.875 19.8242C158.795 19.9449 158.634 19.9852 158.473 19.9852Z" fill="#F0F0F0"/>
      <path d="M165.638 19.9852H167.329C167.61 19.9852 167.892 20.106 168.094 20.3072C168.295 20.5085 168.416 20.7903 168.416 21.0721V39.4685C168.416 39.6295 168.496 39.7905 168.577 39.9113C168.697 40.032 168.858 40.0723 169.019 40.0723H171.274C171.435 40.0723 171.596 39.9918 171.716 39.9113C171.837 39.7905 171.877 39.6295 171.877 39.4685V21.3941C171.877 20.589 171.555 19.8242 170.992 19.2606C170.428 18.697 169.663 18.375 168.858 18.375H165.638C165.477 18.375 165.316 18.4555 165.195 18.536C165.074 18.6568 165.034 18.8178 165.034 18.9788V19.3814C165.034 19.4619 165.034 19.5424 165.074 19.6229C165.115 19.7034 165.155 19.7839 165.195 19.8242C165.235 19.8644 165.316 19.9449 165.396 19.9449C165.477 19.9852 165.557 19.9852 165.638 19.9852Z" fill="#F0F0F0"/>
      <path d="M113.59 19.9852H118.34C118.622 19.9852 118.904 20.106 119.105 20.3072C119.306 20.5085 119.427 20.7903 119.427 21.0721V39.4685C119.427 39.6295 119.507 39.7905 119.588 39.9113C119.709 40.032 119.87 40.0723 120.031 40.0723H122.325C122.486 40.0723 122.647 39.9918 122.768 39.9113C122.889 39.7905 122.929 39.6295 122.929 39.4685V21.3941C122.929 20.589 122.607 19.8242 122.043 19.2606C121.48 18.697 120.715 18.375 119.91 18.375H113.63C113.469 18.375 113.308 18.4555 113.187 18.536C113.067 18.6568 113.026 18.8178 113.026 18.9788V19.3814C113.026 19.5424 113.067 19.7034 113.187 19.7839C113.268 19.9449 113.429 19.9852 113.59 19.9852Z" fill="#F0F0F0"/>
      <path d="M203.796 19.9852H207.379C207.661 19.9852 207.942 20.106 208.144 20.3072C208.345 20.5085 208.466 20.7903 208.466 21.0721V39.4685C208.466 39.6295 208.546 39.7905 208.627 39.9113C208.748 40.032 208.909 40.0723 209.07 40.0723H211.364C211.525 40.0723 211.686 39.9918 211.807 39.9113C211.928 39.7905 211.968 39.6295 211.968 39.4685V21.3941C211.968 20.589 211.646 19.8242 211.082 19.2606C210.519 18.697 209.754 18.375 208.949 18.375H203.796C203.635 18.375 203.474 18.4555 203.353 18.536C203.233 18.6568 203.192 18.8178 203.192 18.9788V19.3814C203.192 19.5424 203.233 19.7034 203.353 19.7839C203.514 19.9047 203.635 19.9852 203.796 19.9852Z" fill="#F0F0F0"/>
      <path d="M160.887 40.114H163.182C163.343 40.114 163.504 40.0335 163.624 39.953C163.745 39.8323 163.785 39.6712 163.785 39.5102V19.0609C163.785 18.8998 163.705 18.7388 163.624 18.618C163.504 18.4973 163.343 18.457 163.182 18.457H160.887C160.726 18.457 160.565 18.5375 160.444 18.618C160.323 18.7388 160.283 18.8998 160.283 19.0609V39.5102C160.283 39.5907 160.283 39.6713 160.323 39.7518C160.364 39.8323 160.404 39.8725 160.444 39.953C160.484 39.9933 160.565 40.0738 160.645 40.0738C160.766 40.0738 160.847 40.114 160.887 40.114Z" fill="#F0F0F0"/>
      <path d="M217.445 18.375H215.151C214.99 18.375 214.829 18.4555 214.708 18.536C214.587 18.6568 214.547 18.8178 214.547 18.9788V21.0721C214.547 21.2331 214.627 21.3941 214.708 21.5149C214.829 21.6356 214.99 21.6759 215.151 21.6759H217.485C217.646 21.6759 217.808 21.5954 217.928 21.5149C218.049 21.3941 218.089 21.2331 218.089 21.0721V18.9788C218.089 18.8983 218.089 18.8178 218.049 18.7373C218.009 18.6568 217.969 18.5763 217.888 18.536C217.848 18.4958 217.767 18.4555 217.687 18.4153C217.606 18.375 217.526 18.375 217.445 18.375Z" fill="#F0F0F0"/>
      <path d="M38.7241 41.2454C36.1228 44.3245 33.0437 46.9258 29.593 48.9431C29.593 48.9431 10.5345 39.0157 10.5345 13.6398C20.8335 13.162 28.1066 8.54333 29.593 7.05688C30.4955 7.95937 33.4153 9.92361 37.8747 11.5162V8.59642C34.7956 7.53466 31.982 5.78277 29.6461 3.5C28.1597 4.98646 22.4262 10.5076 7.5616 11.2508C6.07515 41.1923 29.6461 52.5 29.6461 52.5C34.7425 49.7394 39.2019 45.9171 42.7057 41.2985H38.7241V41.2454Z" fill="white"/>
      <path d="M44.4019 24.9961H37.5005V31.2605H44.4019V24.9961Z" fill="white"/>
      <path d="M37.0227 31.9053H35.0054V33.6572H37.0227V31.9053Z" fill="white"/>
      <path d="M41.5416 34.9805H38.5156V37.741H41.5416V34.9805Z" fill="white"/>
      <path d="M48.9754 35.4062H44.4629V39.3878H48.9754V35.4062Z" fill="white"/>
      <path d="M60.5419 22.2422H55.127V27.1263H60.5419V22.2422Z" fill="white"/>
      <path d="M60.0659 13.001H57.5708V15.2307H60.0659V13.001Z" fill="white"/>
      <path d="M55.1748 14.3838H52.6797V16.6135H55.1748V14.3838Z" fill="white"/>
      <path d="M55.1814 27.6035H51.9961V30.5233H55.1814V27.6035Z" fill="white"/>
      <path d="M52.8986 32.8037H49.501V35.8297H52.8986V32.8037Z" fill="white"/>
      <path d="M50.0847 9.28711H46.3154V12.6316H50.0847V9.28711Z" fill="white"/>
      <path d="M42.865 6.31348H39.5205V9.28639H42.865V6.31348Z" fill="white"/>
      <path d="M39.1448 12.1553H34.8447V15.9776H39.1448V12.1553Z" fill="white"/>
      <path d="M35.1633 14.1172H34.8447V17.9395H35.1633V14.1172Z" fill="white"/>
      <path d="M41.5943 9.12891H41.2227V12.9512H41.5943V9.12891Z" fill="white"/>
      <path d="M48.9206 12.1553H48.6021V20.5962H48.9206V12.1553Z" fill="white"/>
      <path d="M58.5798 14.7559H58.2612V23.1968H58.5798V14.7559Z" fill="white"/>
      <path d="M58.4165 14.915H54.3818V15.2867H58.4165V14.915Z" fill="white"/>
      <path d="M55.3387 23.3525H51.251V23.6711H55.3387V23.3525Z" fill="white"/>
      <path d="M52.5804 27.8672H48.4927V28.1857H52.5804V27.8672Z" fill="white"/>
      <path d="M47.433 29.0869H43.3452V29.4054H47.433V29.0869Z" fill="white"/>
      <path d="M51.0405 35.4062H47.0059V35.7779H51.0405V35.4062Z" fill="white"/>
      <path d="M54.7004 28.3428L54.3818 28.1304L55.4967 26.4316L55.7621 26.644L54.7004 28.3428Z" fill="white"/>
      <path d="M36.7064 32.5406L36.4409 32.2752L37.8743 30.8418L38.1397 31.1072L36.7064 32.5406Z" fill="white"/>
      <path d="M46.898 21.1807H42.8633V21.4992H46.898V21.1807Z" fill="white"/>
      <path d="M40.2689 17.6748H36.1812V17.9933H40.2689V17.6748Z" fill="white"/>
      <path d="M43.0264 14.4365H42.6548V22.8775H43.0264V14.4365Z" fill="white"/>
      <path d="M41.5327 28.6621H41.1611V37.1031H41.5327V28.6621Z" fill="white"/>
      <path d="M52.9009 27.8145H52.5293V34.185H52.9009V27.8145Z" fill="white"/>
      <path d="M46.4224 12.6299H40.105V18.3634H46.4224V12.6299Z" fill="white"/>
      <path d="M43.5554 22.4512H41.9097V23.9376H43.5554V22.4512Z" fill="white"/>
      <path d="M51.4112 19.6914H46.6333V23.8853H51.4112V19.6914Z" fill="white"/>
      <path d="M36.5451 17.6748H31.6079V22.1873H36.5451V17.6748Z" fill="white"/>
      <path d="M49.3458 27.0186H46.6914V29.4606H49.3458V27.0186Z" fill="white"/>
      <g opacity="0.8">
        <path opacity="0.8" d="M29.5918 48.9438V7.05762C28.1054 8.54407 20.7793 13.1627 10.5333 13.6405C10.4802 39.0164 29.5918 48.9438 29.5918 48.9438Z" fill="white"/>
      </g>
    </g>
  </g>
  <defs>
    <clipPath id="clip0_12479_41062">
      <rect width="223.125" height="56" fill="white" transform="translate(0.5)"/>
    </clipPath>
    <clipPath id="clip1_12479_41062">
      <rect width="241.597" height="49" fill="white" transform="translate(3.125 3.5)"/>
    </clipPath>
  </defs>
</svg>
